<svg width="32" height="32" viewBox="0 0 32 32" fill="none" xmlns="http://www.w3.org/2000/svg">
<path d="M0 10C0 4.47715 4.47715 0 10 0H32V22C32 27.5228 27.5228 32 22 32H0V10Z" fill="url(#paint0_linear_4_8)"/>
<path d="M3.72 15.908V14.996L9.132 12.392V13.22L4.596 15.452L9.132 17.696V18.524L3.72 15.908ZM10.2722 19.184H11.0282V11.816H10.2722V11H12.7922V11.816H12.0122V19.184H14.5322V17.78H15.3482V20H10.2722V19.184ZM19.9724 15.596C20.1324 15.708 20.2804 15.808 20.4164 15.896C20.5604 15.976 20.6844 16.064 20.7884 16.16C20.9964 16.352 21.1004 16.588 21.1004 16.868V18.908C21.1004 19.268 20.9724 19.544 20.7164 19.736C20.5004 19.912 20.2164 20 19.8644 20H16.0364V17.78H16.9004V19.184H20.1404V16.844L16.9964 14.912C16.7164 14.752 16.4844 14.588 16.3004 14.42C16.1244 14.244 16.0364 14.008 16.0364 13.712V12.2C16.0364 11.728 16.1484 11.404 16.3724 11.228C16.5644 11.076 16.8964 11 17.3684 11H20.9924V13.22H20.1284V11.816H16.9964V13.736L19.9724 15.596ZM22.1803 12.392L27.5923 14.996V15.908L22.1803 18.524V17.696L26.7163 15.452L22.1803 13.22V12.392Z" fill="black"/>
<defs>
<linearGradient id="paint0_linear_4_8" x1="16" y1="0" x2="16" y2="32" gradientUnits="userSpaceOnUse">
<stop stop-color="#FFE9CA"/>
<stop offset="1" stop-color="#F9BD6A"/>
</linearGradient>
</defs>
</svg>
